<svg width="165" height="139" viewBox="0 0 165 139" fill="none" xmlns="http://www.w3.org/2000/svg">
<rect width="165" height="139" fill="white"/>
<path d="M25 102H23.3209L24.1207 103.476L36.0393 125.476L36.323 126H36.9186H123.081H123.677L123.961 125.476L135.879 103.476L136.679 102H135H25Z" fill="#A2A2A2" stroke="black" stroke-width="2"/>
<path d="M80 134C91.9162 134 102.73 133.102 110.589 131.64C114.509 130.911 117.745 130.032 120.023 129.029C121.159 128.53 122.114 127.976 122.799 127.352C123.482 126.731 124 125.944 124 125C124 124.056 123.482 123.269 122.799 122.648C122.114 122.024 121.159 121.47 120.023 120.971C117.745 119.968 114.509 119.089 110.589 118.36C102.73 116.898 91.9162 116 80 116C68.0838 116 57.2697 116.898 49.4115 118.36C45.4906 119.089 42.2553 119.968 39.9765 120.971C38.8407 121.47 37.8865 122.024 37.2009 122.648C36.5177 123.269 36 124.056 36 125C36 125.944 36.5177 126.731 37.2009 127.352C37.8865 127.976 38.8407 128.53 39.9765 129.029C42.2553 130.032 45.4906 130.911 49.4115 131.64C57.2697 133.102 68.0838 134 80 134Z" fill="#A2A2A2" stroke="black" stroke-width="2"/>
<path d="M80 134C91.9162 134 102.73 133.102 110.589 131.64C114.509 130.911 117.745 130.032 120.023 129.029C121.159 128.53 122.114 127.976 122.799 127.352C123.482 126.731 124 125.944 124 125C124 124.056 123.482 123.269 122.799 122.648C122.114 122.024 121.159 121.47 120.023 120.971C117.745 119.968 114.509 119.089 110.589 118.36C102.73 116.898 91.9162 116 80 116C68.0838 116 57.2697 116.898 49.4115 118.36C45.4906 119.089 42.2553 119.968 39.9765 120.971C38.8407 121.47 37.8865 122.024 37.2009 122.648C36.5177 123.269 36 124.056 36 125C36 125.944 36.5177 126.731 37.2009 127.352C37.8865 127.976 38.8407 128.53 39.9765 129.029C42.2553 130.032 45.4906 130.911 49.4115 131.64C57.2697 133.102 68.0838 134 80 134Z" fill="#A2A2A2" stroke="black" stroke-width="2"/>
<path d="M25 103H135L123.081 125H36.9186L25 103Z" fill="#A2A2A2"/>
<ellipse cx="80" cy="125" rx="43" ry="8" fill="#A2A2A2"/>
<mask id="path-6-outside-1_9_2" maskUnits="userSpaceOnUse" x="18" y="69" width="125" height="53" fill="black">
<rect fill="white" x="18" y="69" width="125" height="53"/>
<path fill-rule="evenodd" clip-rule="evenodd" d="M27.6738 93.2291C23.1971 94.8581 20 99.1513 20 104.191C20 110.632 25.2211 115.853 31.6618 115.853C35.4647 115.853 38.8424 114.033 40.9712 111.216C42.8885 115.03 46.8371 117.647 51.3971 117.647C55.2 117.647 58.5777 115.827 60.7065 113.01C62.6238 116.824 66.5724 119.441 71.1324 119.441C75.2394 119.441 78.8506 117.318 80.9282 114.11C82.8461 117.318 86.1795 119.441 89.9706 119.441C94.1513 119.441 97.7753 116.859 99.5582 113.087C101.69 115.86 105.041 117.647 108.809 117.647C113.369 117.647 117.317 115.03 119.235 111.216C121.363 114.033 124.741 115.853 128.544 115.853C134.985 115.853 140.206 110.632 140.206 104.191C140.206 99.1513 137.009 94.8581 132.532 93.2291C126.996 80.4916 105.624 71 80.1029 71C54.5822 71 33.2099 80.4916 27.6738 93.2291Z"/>
</mask>
<path fill-rule="evenodd" clip-rule="evenodd" d="M27.6738 93.2291C23.1971 94.8581 20 99.1513 20 104.191C20 110.632 25.2211 115.853 31.6618 115.853C35.4647 115.853 38.8424 114.033 40.9712 111.216C42.8885 115.03 46.8371 117.647 51.3971 117.647C55.2 117.647 58.5777 115.827 60.7065 113.01C62.6238 116.824 66.5724 119.441 71.1324 119.441C75.2394 119.441 78.8506 117.318 80.9282 114.11C82.8461 117.318 86.1795 119.441 89.9706 119.441C94.1513 119.441 97.7753 116.859 99.5582 113.087C101.69 115.86 105.041 117.647 108.809 117.647C113.369 117.647 117.317 115.03 119.235 111.216C121.363 114.033 124.741 115.853 128.544 115.853C134.985 115.853 140.206 110.632 140.206 104.191C140.206 99.1513 137.009 94.8581 132.532 93.2291C126.996 80.4916 105.624 71 80.1029 71C54.5822 71 33.2099 80.4916 27.6738 93.2291Z" fill="#E2B879"/>
<path d="M27.6738 93.2291L28.3577 95.1086L29.1655 94.8146L29.5081 94.0263L27.6738 93.2291ZM40.9712 111.216L42.7582 110.318L41.3142 107.445L39.3757 110.01L40.9712 111.216ZM60.7065 113.01L62.4935 112.112L61.0495 109.239L59.111 111.804L60.7065 113.01ZM80.9282 114.11L82.6449 113.083L80.9962 110.325L79.2495 113.022L80.9282 114.11ZM99.5582 113.087L101.144 111.868L99.1487 109.273L97.75 112.233L99.5582 113.087ZM119.235 111.216L120.83 110.01L118.892 107.445L117.448 110.318L119.235 111.216ZM132.532 93.2291L130.698 94.0263L131.04 94.8146L131.848 95.1086L132.532 93.2291ZM26.99 91.3497C21.7484 93.257 18 98.2838 18 104.191H22C22 100.019 24.6458 96.4592 28.3577 95.1086L26.99 91.3497ZM18 104.191C18 111.736 24.1166 117.853 31.6618 117.853V113.853C26.3257 113.853 22 109.527 22 104.191H18ZM31.6618 117.853C36.1181 117.853 40.0763 115.717 42.5668 112.422L39.3757 110.01C37.6086 112.348 34.8112 113.853 31.6618 113.853V117.853ZM39.1843 112.114C41.4279 116.577 46.0522 119.647 51.3971 119.647V115.647C47.6221 115.647 44.3491 113.482 42.7582 110.318L39.1843 112.114ZM51.3971 119.647C55.8534 119.647 59.8116 117.511 62.3021 114.216L59.111 111.804C57.3438 114.142 54.5465 115.647 51.3971 115.647V119.647ZM58.9196 113.908C61.1632 118.372 65.7875 121.441 71.1324 121.441V117.441C67.3574 117.441 64.0844 115.277 62.4935 112.112L58.9196 113.908ZM71.1324 121.441C75.9458 121.441 80.1764 118.95 82.607 115.197L79.2495 113.022C77.5248 115.686 74.533 117.441 71.1324 117.441V121.441ZM79.2115 115.136C81.4483 118.878 85.3975 121.441 89.9706 121.441V117.441C86.9614 117.441 84.2438 115.758 82.6449 113.083L79.2115 115.136ZM89.9706 121.441C95.0174 121.441 99.2944 118.326 101.366 113.942L97.75 112.233C96.2562 115.393 93.2852 117.441 89.9706 117.441V121.441ZM97.9727 114.306C100.467 117.55 104.393 119.647 108.809 119.647V115.647C105.688 115.647 102.913 114.17 101.144 111.868L97.9727 114.306ZM108.809 119.647C114.154 119.647 118.778 116.577 121.022 112.114L117.448 110.318C115.857 113.482 112.584 115.647 108.809 115.647V119.647ZM117.639 112.422C120.13 115.717 124.088 117.853 128.544 117.853V113.853C125.395 113.853 122.597 112.348 120.83 110.01L117.639 112.422ZM128.544 117.853C136.089 117.853 142.206 111.736 142.206 104.191H138.206C138.206 109.527 133.88 113.853 128.544 113.853V117.853ZM142.206 104.191C142.206 98.2838 138.458 93.257 133.216 91.3497L131.848 95.1086C135.56 96.4592 138.206 100.019 138.206 104.191H142.206ZM134.366 92.4319C131.31 85.4007 124.053 79.5629 114.602 75.5005C105.094 71.4141 93.0968 69 80.1029 69V73C92.6298 73 104.079 75.3317 113.022 79.1754C122.021 83.0432 128.218 88.32 130.698 94.0263L134.366 92.4319ZM80.1029 69C67.109 69 55.1118 71.4141 45.6044 75.5005C36.1528 79.5629 28.8955 85.4007 25.8396 92.4319L29.5081 94.0263C31.9882 88.32 38.1851 83.0432 47.1839 79.1754C56.1268 75.3317 67.576 73 80.1029 73V69Z" fill="black" mask="url(#path-6-outside-1_9_2)"/>
<path d="M60.8956 115.321L61.5999 114.611L60.8956 115.321C61.3922 115.814 62.0528 116.106 62.7514 116.143L78.4147 116.96C79.1632 116.999 79.8934 116.721 80.4254 116.193L79.7212 115.483L80.4255 116.193L80.5457 116.074C80.7542 115.867 81.0951 115.882 81.284 116.107C81.7595 116.673 82.4608 117 83.2001 117H96.1881C97.0443 117 97.8815 116.748 98.5957 116.276L98.7192 116.194C99.4352 115.721 100.365 115.721 101.081 116.194C101.904 116.739 102.895 116.971 103.874 116.85L116.157 115.327C117.003 115.222 117.79 114.839 118.396 114.238L118.909 113.729C119.347 113.294 120.053 113.294 120.491 113.729C121.527 114.757 123.138 114.93 124.369 114.145L126.754 112.623C131.207 109.784 130.741 103.138 125.935 100.948L105.665 91.7085C103.165 90.569 100.369 90.2508 97.6768 90.7995L38.7702 102.808C36.5761 103.255 35 105.185 35 107.424V111.087C35 113.548 37.8428 114.921 39.7709 113.391C40.1447 113.094 40.6812 113.124 41.0199 113.46L42.255 114.685C43.173 115.596 44.4137 116.107 45.7068 116.107H57.7561C58.4965 116.107 59.2068 115.815 59.7324 115.293C60.0466 114.981 60.5534 114.981 60.8676 115.293L60.8956 115.321Z" fill="#E2B879" stroke="black" stroke-width="2"/>
<path d="M142.412 78.5078L147.266 79.5298C148.449 79.7788 149.143 81.0124 148.74 82.1525L146.971 87.1656C146.689 87.9653 145.933 88.5 145.085 88.5H142C140.895 88.5 140 87.6046 140 86.5V80.4649C140 79.1945 141.169 78.2461 142.412 78.5078Z" fill="#E18855" stroke="black" stroke-width="2"/>
<path fill-rule="evenodd" clip-rule="evenodd" d="M27.6738 93.2291C23.1971 94.8581 20 99.1513 20 104.191C20 110.632 25.2211 115.853 31.6618 115.853C35.4647 115.853 38.8424 114.033 40.9712 111.216C42.8885 115.03 46.8371 117.647 51.3971 117.647C55.2 117.647 58.5777 115.827 60.7065 113.01C62.6238 116.824 66.5724 119.441 71.1324 119.441C75.2394 119.441 78.8506 117.318 80.9282 114.11C82.8461 117.318 86.1795 119.441 89.9706 119.441C94.1513 119.441 97.7753 116.859 99.5582 113.087C101.69 115.86 105.041 117.647 108.809 117.647C113.369 117.647 117.317 115.03 119.235 111.216C121.363 114.033 124.741 115.853 128.544 115.853C134.985 115.853 140.206 110.632 140.206 104.191C140.206 99.1513 137.009 94.8581 132.532 93.2291C126.996 80.4916 105.624 71 80.1029 71C54.5822 71 33.2099 80.4916 27.6738 93.2291Z" fill="url(#paint0_linear_9_2)"/>
<mask id="mask0_9_2" style="mask-type:alpha" maskUnits="userSpaceOnUse" x="41" y="58" width="73" height="48">
<rect x="41" y="58" width="73" height="48" fill="#D9D9D9"/>
</mask>
<g mask="url(#mask0_9_2)">
<path d="M118.796 125.53C119.075 125.397 119.294 125.291 119.448 125.215C119.315 93.7575 98.7984 68.5 73.7237 68.5C48.649 68.5 28.1328 93.7575 27.9994 125.215C28.1535 125.291 28.3719 125.397 28.6517 125.53C29.2621 125.818 30.1644 126.232 31.3277 126.729C33.6544 127.722 37.0242 129.048 41.1894 130.374C49.5225 133.027 61.0258 135.676 73.7237 135.676C86.4216 135.676 97.9249 133.027 106.258 130.374C110.423 129.048 113.793 127.722 116.12 126.729C117.283 126.232 118.185 125.818 118.796 125.53Z" fill="url(#paint1_linear_9_2)" stroke="url(#paint2_radial_9_2)"/>
</g>
<path d="M42.9593 113.975L41.7242 112.75C41.0259 112.057 39.9198 111.996 39.1493 112.608C37.8765 113.618 36 112.711 36 111.087V107.796C36 105.897 37.5028 104.337 39.4012 104.268L113.406 101.54C114.132 101.514 114.859 101.582 115.567 101.744L124.081 103.687C128.134 104.612 129.062 109.965 125.558 112.201L123.831 113.302C122.994 113.835 121.9 113.718 121.195 113.019C120.367 112.198 119.033 112.198 118.205 113.019L117.691 113.528C117.243 113.973 116.66 114.256 116.034 114.334L103.751 115.857C103.008 115.949 102.257 115.773 101.632 115.36C100.582 114.665 99.2181 114.665 98.1676 115.36L98.044 115.442C97.4935 115.806 96.8481 116 96.1881 116H83.2001C82.7563 116 82.3352 115.804 82.0497 115.464C81.4846 114.791 80.4652 114.745 79.8414 115.364L79.7212 115.483C79.3893 115.812 78.9338 115.986 78.4669 115.962L62.8035 115.144C62.3504 115.12 61.922 114.931 61.5999 114.611L61.5719 114.583C60.8678 113.885 59.7322 113.885 59.0281 114.583C58.6898 114.919 58.2326 115.107 57.7561 115.107H45.7068C44.6776 115.107 43.69 114.7 42.9593 113.975Z" fill="url(#paint3_linear_9_2)"/>
<path d="M35.4009 68.9154L28.3242 82.8751C28.1111 83.2955 28 83.7603 28 84.2316V91.2196C28 92.2934 28.5739 93.2853 29.5048 93.8205L43.1891 101.687C43.4991 101.866 43.8384 101.987 44.1911 102.046L67.5336 105.936C67.8338 105.986 68.14 105.99 68.4415 105.948L131.74 97.1131C132.997 96.9376 134.008 95.9893 134.264 94.7454L135.986 86.3571C136.368 84.4965 134.947 82.7536 133.048 82.7536H128.405C128.272 82.7536 128.139 82.7268 128.016 82.6747L122.756 80.4512C122.635 80.4001 122.525 80.3256 122.433 80.2321L120.461 78.2314C119.114 76.8654 116.849 77.0965 115.806 78.7064L104.765 95.7518C104.461 96.2204 103.833 96.3497 103.369 96.0391L87.5822 85.4663C86.2879 84.5995 84.5454 84.8675 83.5715 86.0833L71.2009 101.526C70.8137 102.009 70.0846 102.028 69.6731 101.565L54.5076 84.5067C53.4413 83.3073 51.583 83.2595 50.4563 84.4024C50.0924 84.7716 49.4758 84.6869 49.225 84.2332L40.7021 68.8201C39.537 66.7131 36.4896 66.7679 35.4009 68.9154Z" fill="#895D2A" stroke="black" stroke-width="2"/>
<path d="M35.3719 71.1843L29.2161 83.3273C29.074 83.6076 29 83.9174 29 84.2316V91.2508C29 91.9499 28.635 92.5982 28.0373 92.9608L27.6792 93.1781C26.5701 93.8508 26.385 95.385 27.3023 96.3022L37.4142 106.414C37.7893 106.789 38.298 107 38.8284 107H91.5L112.892 106.127C114.945 106.043 116.962 105.565 118.834 104.718L137 96.5L134.717 94.2167C134.266 93.7662 134.057 93.128 134.154 92.4982L135.145 86.0578C135.332 84.8463 134.394 83.7536 133.169 83.7536H128.405C128.138 83.7536 127.873 83.7 127.627 83.5958L122.366 81.3723C122.125 81.27 121.905 81.1211 121.721 80.9341L119.818 79.004C118.899 78.071 117.345 78.2594 116.675 79.385L106.104 97.1448C105.509 98.1457 104.187 98.4278 103.235 97.7574L87.0167 86.3429C86.1612 85.7407 84.9862 85.8996 84.3214 86.7074L71.9671 101.718C71.1931 102.658 69.7653 102.694 68.9448 101.794L53.7751 85.1524C53.0598 84.3677 51.856 84.2787 51.0331 84.9497L45.5848 89.3923C44.4143 90.3468 42.6489 89.7092 42.3583 88.2272L39.1184 71.7038C38.7523 69.8368 36.2321 69.4873 35.3719 71.1843Z" fill="url(#paint4_linear_9_2)"/>
<path d="M30.791 99.65V99.65C32.1547 101.724 34.2776 103.181 36.7036 103.706L39.4284 104.297" stroke="black" stroke-width="2" stroke-linecap="round"/>
<path d="M63.1301 105.481V105.481C65.0872 107.008 67.5651 107.707 70.0316 107.427L72.8018 107.112" stroke="black" stroke-width="2" stroke-linecap="round"/>
<path d="M131.28 98.65V98.65C129.914 100.899 127.607 102.411 124.999 102.767L122.495 103.108" stroke="black" stroke-width="2" stroke-linecap="round"/>
<path d="M106.882 106.36V106.36C104.786 107.554 102.33 107.954 99.9631 107.485L97.1093 106.92" stroke="black" stroke-width="2" stroke-linecap="round"/>
<path d="M90.4173 10.6019L89.8702 9.34115L88.839 10.2496L68.5433 28.1291L46.7071 6.29289L45.3552 4.94096L45.0159 6.82253L39.6642 36.5H10H7.50601L9.30914 38.223L31.1502 59.0933L10.7163 84.8789L9.43162 86.5H11.5H41.2638L48.0451 108.297L48.4693 109.66L49.6055 108.796L71.8936 91.8375L91.7763 112.69L92.7856 113.749L93.4057 112.424L103.98 89.8338L131.572 102.904L133.353 103.747L132.982 101.812L128.658 79.2301L158.254 71.4673L160.621 70.8462L158.496 69.6318L131.214 54.0419L140.361 27.3239L140.926 25.6737L139.217 26.0199L100.51 33.8592L90.4173 10.6019Z" fill="#FFE766" stroke="black" stroke-width="2"/>
<path d="M123.571 79.2523L126.589 95.0108L105.212 84.885L101.581 83.1648L99.8772 86.8042L91.3576 105.005L74.895 87.7397L72.4256 85.1499L69.5779 87.3167L51.1229 101.359L45.8194 84.3117L44.9447 81.5H42H19.7735L35.635 61.4843L37.8994 58.6269L35.2634 56.108L19.976 41.5H40.5H43.8432L44.4365 38.2099L48.5793 15.2362L65.6716 32.3284L68.3266 34.9835L71.1441 32.5014L88.0191 17.6354L96.2457 36.5924L97.535 39.5633L100.709 38.9204L133.371 32.3054L126.216 53.2044L125.145 56.3325L128.015 57.973L147.514 69.1151L126.485 74.6309L122.868 75.5796L123.571 79.2523Z" fill="#FFEF63" stroke="#F03218" stroke-width="8"/>
<path d="M94.02 76.3445L95.3966 76.3661L94.9914 75.0503L84.1905 39.9765L83.9767 39.2823L83.2505 39.2709L73.8516 39.1234L73.1283 39.112L72.8912 39.7954L60.8449 74.5106L60.3917 75.8167L61.7739 75.8384L69.473 75.9592L70.2161 75.9709L70.4416 75.2627L72.846 67.7111L83.0084 67.8706L85.1747 75.494L85.3779 76.2088L86.1209 76.2205L94.02 76.3445ZM78.1583 50.2275L80.6978 59.3833L75.3671 59.2996L78.1583 50.2275Z" fill="white" stroke="black" stroke-width="2"/>
<path d="M94.1305 76.3401L83.3296 41.2663L73.9308 41.1187L61.8845 75.834L69.5835 75.9548L72.2135 67.6951L83.8621 67.8779L86.2315 76.2161L94.1305 76.3401ZM82.1135 61.3997L74.1145 61.2741L78.172 48.0862L78.4219 48.0901L82.1135 61.3997Z" fill="#0F62FE"/>
<path d="M35.7928 81.4913L35.9584 82.4775L36.9446 82.3119L55.1892 79.2485C60.9154 78.2871 64.2219 72.654 63.238 66.7938C62.6945 63.5571 61.067 61.4621 59.0568 60.2801C58.3192 59.8464 57.5404 59.5414 56.759 59.3454C57.2777 58.9496 57.744 58.4779 58.1386 57.921C59.3007 56.2807 59.7306 54.0575 59.2572 51.2383C58.7743 48.3622 57.4353 46.0403 55.3601 44.5804C53.2854 43.1208 50.5909 42.6041 47.5504 43.1146L30.8344 45.9213L29.8482 46.0869L30.0138 47.0731L35.7928 81.4913ZM43.0414 66.6867L50.6844 65.4034C51.485 65.2689 52.0563 65.4071 52.4361 65.6649C52.8086 65.9177 53.1291 66.375 53.2594 67.1511L53.5409 68.8276C53.6712 69.6037 53.5176 70.1406 53.2481 70.5012C52.9733 70.8689 52.4785 71.1861 51.678 71.3205L44.0349 72.6038L43.0414 66.6867ZM40.7066 52.7813L47.1662 51.6967C47.9547 51.5643 48.5087 51.7105 48.8787 51.9741C49.2486 52.2377 49.5677 52.7136 49.7001 53.502L49.9485 54.9813C50.0809 55.7698 49.9347 56.3239 49.6711 56.6938C49.4076 57.0637 48.9316 57.3829 48.1432 57.5153L41.6836 58.5999L40.7066 52.7813Z" fill="#2072EE" stroke="black" stroke-width="2"/>
<path d="M54.858 77.2762L37.5996 80.1739L32.1518 47.7281L47.8816 45.087C50.5118 44.6454 52.6476 45.1174 54.2093 46.2161C55.7704 47.3143 56.8735 49.12 57.2848 51.5694C57.6973 54.0263 57.2811 55.6716 56.5066 56.7648C55.726 57.8666 54.4699 58.5651 52.8956 58.8983L51.9577 59.0968L52.1165 60.0422L52.1661 60.3381L52.3317 61.3243L53.3179 61.1587C54.7481 60.9185 56.5302 61.1146 58.043 62.0041C59.5205 62.8729 60.8155 64.4446 61.2656 67.125C62.1031 72.113 59.2897 76.5321 54.858 77.2762ZM41.724 64.8799L40.7378 65.0454L40.9034 66.0316L42.2281 73.9212L42.3937 74.9074L43.3799 74.7418L52.0091 73.2929C53.181 73.0962 54.1935 72.5772 54.8502 71.6985C55.5122 70.8126 55.7141 69.6928 55.5133 68.4965L55.2318 66.8199C55.0309 65.6236 54.4742 64.6311 53.5593 64.0101C52.6516 63.394 51.5251 63.2342 50.3533 63.431L41.724 64.8799ZM39.3893 50.9745L38.4031 51.1401L38.5686 52.1263L39.8768 59.9172L40.0424 60.9034L41.0286 60.7378L48.4743 59.4876C49.6583 59.2889 50.6609 58.7513 51.3 57.8543C51.9391 56.9573 52.1197 55.8341 51.9209 54.6502L51.6725 53.1709C51.4737 51.9869 50.9362 50.9843 50.0392 50.3452C49.1422 49.7061 48.019 49.5255 46.835 49.7243L39.3893 50.9745Z" fill="#2072EE" stroke="white" stroke-width="2"/>
<path d="M36.8739 82.3212L55.1185 79.2578C60.1974 78.4051 63.2574 73.379 62.3466 67.9549C61.3531 62.0377 56.5016 60.6215 53.2472 61.168L53.1975 60.8721C56.6737 60.1363 59.2518 57.6755 58.3659 52.3993C57.4717 47.0739 53.4815 44.1442 47.8109 45.0963L31.0948 47.903L36.8739 82.3212ZM41.9845 66.8615L50.6137 65.4126C52.5861 65.0815 54.0092 66.0086 54.3404 67.981L54.6219 69.6575C54.9531 71.6299 53.9108 72.971 51.9384 73.3022L43.3092 74.7511L41.9845 66.8615ZM39.6497 52.9562L47.0955 51.706C49.0679 51.3748 50.45 52.3595 50.7812 54.3319L51.0296 55.8112C51.3607 57.7836 50.376 59.1658 48.4036 59.4969L40.9578 60.7471L39.6497 52.9562Z" fill="#0F62FE"/>
<path d="M115.497 86.4041L115.178 87.352L116.126 87.6706L122.903 89.9491L123.851 90.2677L124.17 89.3199L135.291 56.2393L135.61 55.2914L134.662 54.9727L126.984 52.3916L126.407 52.1976L125.97 52.6212L114.054 64.1631L111.445 47.7334L111.35 47.1354L110.776 46.9424L103.146 44.3772L102.198 44.0585L101.879 45.0064L90.7576 78.087L90.439 79.0349L91.3868 79.3535L98.1641 81.632L99.112 81.9506L99.4306 81.0028L105.543 62.8207L105.801 64.8761L105.804 64.8992L105.808 64.9222L108.191 78.7001L108.504 80.506L109.853 79.2659L120.234 69.7267L120.249 69.7132L120.263 69.6992L121.54 68.4288L115.497 86.4041Z" fill="white" stroke="black" stroke-width="2"/>
<path d="M116.08 87.5607L122.858 89.8391L133.979 56.7585L126.301 54.1773L113.082 66.9823L112.987 66.9504L110.093 48.7282L102.462 46.163L91.341 79.2436L98.1183 81.522L105.527 59.4841L105.669 59.5319L106.429 65.5896L108.812 79.3675L119.193 69.8282L123.236 65.8067L123.378 65.8545L116.08 87.5607Z" fill="#0F62FE"/>
<path d="M8 90.8441V84C8 82.8954 8.89543 82 10 82H13.066C13.8398 82 14.5441 82.4463 14.8745 83.146L18.4657 90.7509C19.1351 92.1685 17.9876 93.77 16.4301 93.592L9.77291 92.8312C8.76278 92.7157 8 91.8608 8 90.8441Z" fill="#895D2A" stroke="black" stroke-width="2"/>
<path d="M81.385 88.2256L83.4414 86.4263C84.0764 85.8706 84.992 85.7733 85.7297 86.1831L90.1138 88.6188C91.5337 89.4076 91.4707 91.4705 90.0054 92.1713L84.2873 94.9061C83.1209 95.4639 81.7397 94.7851 81.4688 93.5209L80.7464 90.1498C80.5943 89.4401 80.8387 88.7036 81.385 88.2256Z" fill="#895D2A" stroke="black" stroke-width="2" stroke-linecap="round"/>
<defs>
<linearGradient id="paint0_linear_9_2" x1="80" y1="122.5" x2="80" y2="90" gradientUnits="userSpaceOnUse">
<stop stop-color="#C68538"/>
<stop offset="1" stop-color="#9D6D34"/>
</linearGradient>
<linearGradient id="paint1_linear_9_2" x1="73.6353" y1="96" x2="74.9105" y2="68.0542" gradientUnits="userSpaceOnUse">
<stop stop-color="#9D2828"/>
<stop offset="0.619792" stop-color="#F47B37"/>
<stop offset="1" stop-color="#FF5F05"/>
</linearGradient>
<radialGradient id="paint2_radial_9_2" cx="0" cy="0" r="1" gradientUnits="userSpaceOnUse" gradientTransform="translate(73.7237 102.088) rotate(-90) scale(34.0882 44.5539)">
<stop stop-color="#FF3C3C"/>
<stop offset="1" stop-opacity="0"/>
</radialGradient>
<linearGradient id="paint3_linear_9_2" x1="85.5" y1="85" x2="85.5" y2="122" gradientUnits="userSpaceOnUse">
<stop stop-color="#895D2A"/>
<stop offset="1" stop-color="#C68538"/>
</linearGradient>
<linearGradient id="paint4_linear_9_2" x1="81" y1="84" x2="81" y2="124.5" gradientUnits="userSpaceOnUse">
<stop stop-color="#895D2A"/>
<stop offset="1" stop-color="#C68538"/>
</linearGradient>
</defs>
</svg>
